<?xml version="1.0" encoding="UTF-8" standalone="no"?>
<svg width="90px" height="100px" viewBox="0 0 90 100" version="1.1" xmlns="http://www.w3.org/2000/svg" xmlns:xlink="http://www.w3.org/1999/xlink">
    <!-- Generator: Sketch 3.8.3 (29802) - http://www.bohemiancoding.com/sketch -->
    <title>finger print</title>
    <desc>Created with Sketch.</desc>
    <defs></defs>
    <g id="mockups" stroke="none" stroke-width="1" fill="none" fill-rule="evenodd">
        <g id="3-esquemas-detalle-esquema" transform="translate(-188.000000, -210.000000)" fill="#FFFFFF">
            <g id="categoria" transform="translate(0.000000, 120.000000)">
                <g id="icn-" transform="translate(148.000000, 55.000000)">
                    <g id="finger-print" transform="translate(40.000000, 35.000000)">
                        <path d="M17.5813953,12.2916667 C18.5232558,11.6666667 19.4651163,11.25 20.5116279,10.7291667 C21.0348837,10.5208333 21.4534884,10.3125 21.9767442,10 C22.0813953,9.89583333 22.9186047,9.58333333 22.6046512,9.6875 C22.2906977,9.89583333 22.8139535,9.58333333 22.8139535,9.58333333 C23.0232558,9.47916667 23.2325581,9.375 23.5465116,9.27083333 C24.9069767,8.75 26.372093,8.22916667 27.8372093,7.8125 C36.1046512,5.3125 44.8953488,4.58333333 53.5813953,5.83333333 C60.2790698,6.875 66.872093,9.0625 72.8372093,12.0833333 C73.9883721,12.7083333 75.4534884,12.3958333 76.0813953,11.25 C76.7093023,10.2083333 76.3953488,8.54166667 75.244186,8.02083333 C64.7790698,2.8125 53.0581395,3.5682568e-13 41.2325581,0.729166667 C33.5930233,1.25 26.1627907,3.02083333 19.255814,6.14583333 C17.8953488,6.77083333 16.5348837,7.39583333 15.2790698,8.22916667 C14.2325581,8.95833333 13.7093023,10.3125 14.4418605,11.4583333 C14.9651163,12.5 16.5348837,13.0208333 17.5813953,12.2916667 Z M12.244186,81.1458333 C11.0930233,78.3333333 10.4651163,75.4166667 9.94186047,72.3958333 C9.8372093,71.7708333 9.73255814,71.0416667 9.62790698,70.4166667 C9.62790698,70.3125 9.52325581,69.6875 9.62790698,70.4166667 C9.62790698,70.2083333 9.62790698,70.1041667 9.52325581,69.8958333 C9.52325581,69.4791667 9.41860465,69.0625 9.41860465,68.6458333 C9.20930233,67.0833333 9.20930233,65.5208333 9.20930233,63.8541667 C9.20930233,62.1875 9.31395349,60.4166667 9.52325581,58.75 C9.52325581,58.5416667 9.52325581,58.3333333 9.62790698,58.125 C9.52325581,58.6458333 9.62790698,58.0208333 9.62790698,57.9166667 C9.73255814,57.5 9.73255814,57.0833333 9.8372093,56.6666667 C10.0465116,55.7291667 10.1511628,54.7916667 10.4651163,53.9583333 C11.5116279,50.2083333 12.7674419,47.1875 15.0697674,43.9583333 C16.1162791,42.5 17.372093,41.0416667 18.8372093,39.6875 C20.5116279,38.125 22.1860465,36.7708333 24.1744186,35.5208333 C29.0930233,32.3958333 34.744186,30.2083333 40.6046512,29.6875 C46.9883721,29.0625 53.372093,30 59.3372093,32.2916667 C64.0465116,34.0625 68.3372093,36.7708333 71.7906977,40.4166667 C73.6744186,42.2916667 75.1395349,44.4791667 76.5,46.7708333 C77.2325581,48.0208333 77.9651163,49.375 78.5930233,50.7291667 C78.9069767,51.4583333 79.3255814,52.1875 79.6395349,52.9166667 C79.4302326,52.5 79.5348837,52.8125 79.6395349,52.9166667 C79.9534884,53.6458333 80.1627907,54.375 80.372093,55.1041667 C80.5813953,55.7291667 80.6860465,56.3541667 80.7906977,56.9791667 C80.8953488,57.2916667 80.8953488,57.7083333 81,58.125 C81,58.3333333 81.1046512,58.5416667 81.1046512,58.75 C81,58.125 81.1046512,59.0625 81.1046512,59.1666667 C81.2093023,60 81.2093023,60.8333333 81.2093023,61.7708333 L81.2093023,63.125 L81.2093023,63.8541667 L81.2093023,64.2708333 C81.2093023,64.0625 81.2093023,64.0625 81.2093023,64.2708333 C80.8953488,66.3541667 80.4767442,67.5 79.2209302,69.1666667 C79.4302326,68.8541667 79.0116279,69.4791667 79.0116279,69.4791667 C78.8023256,69.6875 78.6976744,69.7916667 78.4883721,70 C78.1744186,70.3125 77.8604651,70.625 77.6511628,70.7291667 C76.6046512,71.5625 75.3488372,72.0833333 74.0930233,72.3958333 C71.372093,73.2291667 68.2325581,73.0208333 65.6162791,71.6666667 C63.627907,70.625 62.1627907,69.1666667 61.1162791,67.1875 C60.9069767,66.7708333 60.8023256,66.5625 60.5930233,65.9375 C60.4883721,65.625 60.3837209,65.2083333 60.3837209,64.8958333 C60.2790698,64.4791667 59.9651163,63.6458333 60.3837209,64.5833333 C60.1744186,64.0625 60.3837209,63.3333333 60.2790698,62.8125 C60.2790698,61.9791667 60.0697674,61.1458333 59.9651163,60.2083333 C57.6627907,48.75 41.2325581,45.2083333 33.8023256,53.75 C28.1511628,60.2083333 29.7209302,69.6875 32.755814,76.9791667 C36.2093023,85.4166667 42.8023256,92.0833333 50.9651163,96.1458333 C53.5813953,97.5 56.4069767,98.5416667 59.2325581,99.4791667 C62.1627907,100.416667 63.4186047,95.8333333 60.4883721,94.8958333 C55.4651163,93.2291667 50.3372093,90.8333333 46.3604651,87.5 C43.0116279,84.7916667 40.7093023,81.875 38.6162791,78.2291667 C38.1976744,77.3958333 37.7790698,76.5625 37.3604651,75.7291667 C37.1511628,75.3125 37.4651163,75.9375 37.255814,75.5208333 C37.1511628,75.3125 37.0465116,75.1041667 37.0465116,75 C36.8372093,74.5833333 36.7325581,74.1666667 36.627907,73.75 C36.1046512,72.2916667 35.6860465,70.7291667 35.372093,69.1666667 C35.2674419,68.4375 35.1627907,67.8125 35.0581395,67.1875 C35.0581395,66.9791667 35.0581395,66.875 34.9534884,66.7708333 C34.8488372,66.25 34.9534884,66.9791667 34.9534884,66.7708333 C34.9534884,66.4583333 34.8488372,66.1458333 34.8488372,65.8333333 C34.5348837,63.2291667 34.9534884,60.625 36.3139535,58.3333333 C39.244186,53.5416667 45,52.7083333 49.8139535,54.6875 C51.5930233,55.4166667 53.2674419,56.6666667 54.3139535,58.3333333 C55.5697674,60.3125 55.4651163,62.5 55.7790698,64.8958333 C55.8837209,65.5208333 55.7790698,65.1041667 55.7790698,65 C55.7790698,65.3125 55.8837209,65.5208333 55.8837209,65.8333333 C55.9883721,66.1458333 55.9883721,66.5625 56.0930233,66.875 C56.3023256,67.6041667 56.6162791,68.4375 56.9302326,69.0625 C57.244186,69.7916667 57.7674419,70.625 58.2906977,71.25 C60.2790698,73.8541667 63,75.7291667 66.244186,76.6666667 C71.8953488,78.3333333 78.8023256,76.875 82.6744186,72.2916667 C87.3837209,66.6666667 86.8604651,58.4375 84.6627907,51.7708333 C83.1976744,47.3958333 80.6860465,43.2291667 77.8604651,39.6875 C74.7209302,35.625 70.744186,32.1875 66.1395349,29.7916667 C54.2093023,23.5416667 39.872093,22.7083333 27.627907,28.3333333 C19.1511628,32.1875 11.8255814,38.75 8.1627907,47.3958333 C5.3372093,54.0625 4.5,61.4583333 5.23255814,68.75 C5.65116279,73.125 6.48837209,77.5 7.95348837,81.6666667 C8.05813953,81.875 8.1627907,82.0833333 8.1627907,82.2916667 C8.68604651,83.5416667 9.73255814,84.375 11.0930233,83.9583333 C11.7209302,83.8541667 12.7674419,82.3958333 12.244186,81.1458333 Z M4.70930233,37.6041667 C4.81395349,37.3958333 4.91860465,37.2916667 5.12790698,37.0833333 C5.3372093,36.875 5.44186047,36.6666667 5.54651163,36.4583333 C5.65116279,36.25 6.06976744,35.8333333 5.54651163,36.4583333 C5.65116279,36.25 5.86046512,36.1458333 5.96511628,35.9375 C7.3255814,34.2708333 8.89534884,32.6041667 10.4651163,31.0416667 C12.872093,28.75 14.9651163,27.0833333 17.6860465,25.3125 C20.9302326,23.2291667 24.3837209,21.4583333 27.9418605,20.2083333 C32.127907,18.75 36.5232558,17.8125 41.0232558,17.5 C43.0116279,17.3958333 45,17.3958333 46.8837209,17.5 C47.8255814,17.5 48.872093,17.6041667 49.8139535,17.6041667 C50.3372093,17.6041667 50.9651163,17.7083333 51.4883721,17.8125 C51.8023256,17.8125 52.1162791,17.9166667 52.4302326,17.9166667 C53.0581395,18.0208333 51.9069767,17.8125 52.5348837,17.9166667 C52.744186,17.9166667 52.9534884,17.9166667 53.0581395,18.0208333 C56.1976744,18.5416667 59.3372093,19.2708333 62.372093,20.3125 C71.372093,23.4375 79.4302326,29.7916667 85.1860465,37.6041667 C85.9186047,38.6458333 87.2790698,39.1666667 88.4302326,38.4375 C89.4767442,37.8125 90,36.25 89.2674419,35.2083333 C83.6162791,27.3958333 76.1860465,21.0416667 67.2906977,17.1875 C61.3255814,14.5833333 54.9418605,13.125 48.4534884,12.8125 C42.2790698,12.5 35.8953488,12.9166667 29.9302326,14.5833333 C22.1860465,16.7708333 15.0697674,20.8333333 9,26.0416667 C5.96511628,28.75 2.93023256,31.7708333 0.73255814,35.2083333 C-1.04651163,37.8125 3.03488372,40.2083333 4.70930233,37.6041667 Z M42.3837209,63.125 C42.2790698,67.6041667 43.8488372,72.0833333 46.0465116,75.9375 C49.1860465,81.5625 54.2093023,85.9375 60.3837209,87.8125 C65.1976744,89.2708333 70.0116279,89.0625 75.0348837,88.5416667 C76.2906977,88.4375 77.4418605,87.5 77.4418605,86.1458333 C77.4418605,84.8958333 76.3953488,83.6458333 75.0348837,83.75 C70.9534884,84.1666667 66.872093,84.4791667 63.1046512,83.5416667 C61.4302326,83.125 60.2790698,82.7083333 59.0232558,82.0833333 C58.3953488,81.7708333 57.7674419,81.3541667 57.1395349,81.0416667 C56.8255814,80.8333333 56.6162791,80.625 56.3023256,80.5208333 C56.0930233,80.4166667 55.9883721,80.3125 55.8837209,80.2083333 C55.7790698,80.1041667 55.7790698,80.1041667 55.8837209,80.2083333 C55.7790698,80.1041667 55.6744186,80.1041667 55.6744186,80 C54.627907,79.1666667 53.5813953,78.125 52.744186,77.0833333 C52.5348837,76.875 52.3255814,76.5625 52.1162791,76.3541667 C52.4302326,76.6666667 51.8023256,75.9375 51.8023256,75.8333333 C51.3837209,75.3125 51.0697674,74.6875 50.6511628,74.1666667 C50.0232558,73.125 49.5,72.0833333 48.9767442,70.9375 C48.9767442,70.8333333 48.872093,70.7291667 48.872093,70.625 C49.0813953,71.1458333 48.9767442,70.8333333 48.872093,70.7291667 C48.7674419,70.4166667 48.6627907,70.2083333 48.5581395,69.8958333 C48.3488372,69.375 48.244186,68.8541667 48.0348837,68.3333333 C47.7209302,67.3958333 47.5116279,66.4583333 47.3023256,65.5208333 C47.3023256,65.4166667 47.1976744,64.6875 47.1976744,65.2083333 C47.3023256,65.7291667 47.1976744,65 47.1976744,64.8958333 L47.1976744,63.0208333 C47.1976744,60.1041667 42.4883721,60.1041667 42.3837209,63.125 Z M72.9418605,63.3333333 C73.1511628,57.2916667 70.744186,51.3541667 66.9767442,46.6666667 C61.0116279,39.1666667 50.5465116,35.625 41.127907,36.875 C32.0232558,38.0208333 23.0232558,44.1666667 19.255814,52.6041667 C16.8488372,58.125 16.4302326,64.1666667 17.2674419,70 C18.8372093,80.625 24.3837209,90.3125 32.127907,97.7083333 C34.3255814,99.7916667 37.6744186,96.4583333 35.4767442,94.375 C28.9883721,88.125 24.1744186,80.3125 22.2906977,71.4583333 C22.0813953,70.7291667 21.9767442,70 21.872093,69.375 C21.872093,69.2708333 21.872093,69.0625 21.7674419,68.9583333 C21.6627907,68.3333333 21.872093,69.4791667 21.7674419,68.8541667 C21.7674419,68.5416667 21.6627907,68.125 21.6627907,67.8125 C21.5581395,66.875 21.4534884,65.8333333 21.4534884,64.8958333 C21.4534884,62.8125 21.6627907,60.8333333 22.0813953,58.8541667 C22.9186047,55 24.8023256,51.4583333 27.5232558,48.75 C28.8837209,47.3958333 29.9302326,46.6666667 31.2906977,45.625 C33.1744186,44.375 35.0581395,43.3333333 37.255814,42.6041667 C42.2790698,40.9375 47.5116279,41.1458333 52.4302326,42.7083333 C56.0930233,43.8541667 59.2325581,45.7291667 61.744186,48.3333333 C63.1046512,49.6875 63.8372093,50.625 64.8837209,52.3958333 C65.3023256,53.0208333 65.6162791,53.75 65.9302326,54.4791667 C66.0348837,54.6875 66.1395349,54.7916667 66.1395349,55 C66.3488372,55.5208333 66.0348837,54.6875 66.244186,55.2083333 C66.3488372,55.5208333 66.5581395,55.9375 66.6627907,56.25 C67.0813953,57.5 67.5,58.75 67.7093023,60.1041667 C67.7093023,60.4166667 67.8139535,60.625 67.8139535,60.9375 C67.7093023,60.1041667 67.8139535,60.9375 67.8139535,61.1458333 C67.9186047,61.9791667 67.9186047,62.8125 67.9186047,63.5416667 C68.127907,66.4583333 72.9418605,66.4583333 72.9418605,63.3333333 Z" id="Combined-Shape"></path>
                    </g>
                </g>
            </g>
        </g>
    </g>
</svg>