<?xml version="1.0" encoding="UTF-8" standalone="no"?>
<svg width="200px" height="87px" viewBox="0 0 200 87" version="1.1" xmlns="http://www.w3.org/2000/svg" xmlns:xlink="http://www.w3.org/1999/xlink">
    <!-- Generator: Sketch 3.8.3 (29802) - http://www.bohemiancoding.com/sketch -->
    <title>logo provisorio</title>
    <desc>Created with Sketch.</desc>
    <defs></defs>
    <g id="Symbols" stroke="none" stroke-width="1" fill="none" fill-rule="evenodd">
        <g id="logo-provisorio" transform="translate(0.000000, 1.000000)">
            <g transform="translate(0.000000, -1.000000)">
                <rect id="Rectangle-66" fill="#006CB7" x="0" y="0" width="91.5254237" height="7.65420561"></rect>
                <rect id="Rectangle-66-Copy" fill="#EF4144" x="91.5254237" y="0" width="108.474576" height="7.65420561"></rect>
                <path d="M20.664,55 L20.664,38.8 L17.52,38.8 L17.52,55 L20.664,55 Z M34.512,55 L34.512,47.728 C34.512,44.752 33.336,43 30.36,43 C28.608,43 27.312,43.792 26.64,44.584 L26.16,43.24 L24,43.24 L24,55 L27.144,55 L27.144,46.12 C27.696,45.76 28.392,45.4 29.208,45.4 C30.648,45.4 31.32,46.24 31.32,48.016 L31.32,55 L34.512,55 Z M44.592,54.448 L44.112,52.144 C43.632,52.384 42.96,52.576 42.312,52.576 C41.472,52.576 41.064,52.048 41.064,51.232 L41.064,45.472 L44.208,45.472 L44.208,43.24 L41.064,43.24 L41.064,40.192 L37.968,41.2 L37.968,43.24 L36.216,43.24 L36.216,45.472 L37.968,45.472 L37.968,51.304 C37.968,54.256 39.336,55.24 41.424,55.24 C42.672,55.24 43.896,54.856 44.592,54.448 L44.592,54.448 Z M56.616,49.96 L56.616,48.592 C56.616,45.64 55.224,43 51.672,43 C47.904,43 46.152,45.472 46.152,49.096 C46.152,52.984 48.312,55.24 51.936,55.24 C53.784,55.24 55.392,54.616 56.376,54.088 L55.776,51.88 C54.744,52.408 53.52,52.864 52.32,52.864 C50.352,52.864 49.296,51.832 49.296,49.96 L56.616,49.96 Z M53.592,48.112 L49.296,48.112 C49.296,46.72 49.944,45.304 51.504,45.304 C53.136,45.304 53.592,46.6 53.592,48.112 L53.592,48.112 Z M65.736,43.192 C65.472,43.12 64.992,43.024 64.368,43.024 C62.976,43.024 61.92,43.984 61.56,44.824 L61.488,44.824 L61.152,43.24 L58.968,43.24 L58.968,55 L62.088,55 L62.088,46.456 C62.616,46.024 63.36,45.664 64.2,45.664 C64.728,45.664 65.28,45.736 65.664,45.856 L65.736,43.192 Z M72.6,43 C69,43 67.08,45.64 67.08,49.096 C67.08,53.128 69.072,55.24 72.6,55.24 C76.104,55.24 78.12,53.104 78.12,49.096 C78.12,45.64 76.152,43 72.6,43 L72.6,43 Z M72.6,52.936 C71.064,52.936 70.32,51.832 70.32,49.096 C70.32,46.288 71.136,45.28 72.6,45.28 C74.064,45.28 74.904,46.264 74.904,49.096 C74.904,51.904 74.136,52.936 72.6,52.936 L72.6,52.936 Z M83.232,53.872 C83.976,54.784 84.744,55.24 86.088,55.24 C88.824,55.24 91.224,53.152 91.224,49.096 C91.224,44.968 89.256,43 86.496,43 C85.176,43 83.928,43.768 83.4,44.512 L83.16,43.24 L80.448,43.24 L80.448,59.56 L83.64,59.56 L83.64,56.032 C83.64,55.168 83.232,53.872 83.232,53.872 L83.232,53.872 Z M83.64,46.264 C84.144,45.736 84.96,45.304 85.776,45.304 C87.192,45.304 88.08,46.288 88.08,49.096 C88.08,51.928 87.12,52.936 85.704,52.936 C84.864,52.936 84.12,52.432 83.64,51.76 L83.64,46.264 Z M103.608,49.96 L103.608,48.592 C103.608,45.64 102.216,43 98.664,43 C94.896,43 93.144,45.472 93.144,49.096 C93.144,52.984 95.304,55.24 98.928,55.24 C100.776,55.24 102.384,54.616 103.368,54.088 L102.768,51.88 C101.736,52.408 100.512,52.864 99.312,52.864 C97.344,52.864 96.288,51.832 96.288,49.96 L103.608,49.96 Z M100.584,48.112 L96.288,48.112 C96.288,46.72 96.936,45.304 98.496,45.304 C100.128,45.304 100.584,46.6 100.584,48.112 L100.584,48.112 Z M112.728,43.192 C112.464,43.12 111.984,43.024 111.36,43.024 C109.968,43.024 108.912,43.984 108.552,44.824 L108.48,44.824 L108.144,43.24 L105.96,43.24 L105.96,55 L109.08,55 L109.08,46.456 C109.608,46.024 110.352,45.664 111.192,45.664 C111.72,45.664 112.272,45.736 112.656,45.856 L112.728,43.192 Z M123.936,55 L123.936,47.536 C123.936,44.536 122.496,43 119.16,43 C117.312,43 115.704,43.456 114.528,43.96 L115.32,46.192 C116.28,45.76 117.456,45.4 118.848,45.4 C120.048,45.4 120.912,45.88 120.912,47.392 L120.912,47.992 L118.44,47.992 C115.608,47.992 114,49.288 114,51.472 C114,53.728 115.584,55.24 117.936,55.24 C119.592,55.24 120.768,54.424 121.368,53.608 L121.8,55 L123.936,55 Z M120.912,52.312 C120.336,52.768 119.568,53.104 118.824,53.104 C117.648,53.104 117.072,52.456 117.072,51.376 C117.072,50.488 117.672,49.864 118.968,49.864 L120.912,49.864 L120.912,52.312 Z M129.792,42.544 L129.792,38.44 L126.648,38.44 L126.648,55 L128.328,55 L128.904,53.584 C129.648,54.592 130.632,55.24 132.312,55.24 C135.048,55.24 137.448,53.152 137.448,49.096 C137.448,44.968 135.456,43 132.696,43 C131.376,43 130.104,43.72 129.576,44.44 L129.792,42.544 Z M129.792,46.24 C130.32,45.712 131.184,45.304 131.976,45.304 C133.416,45.304 134.304,46.288 134.304,49.096 C134.304,51.928 133.296,52.936 131.928,52.936 C131.088,52.936 130.272,52.384 129.792,51.736 L129.792,46.24 Z M143.904,55 L143.904,43.24 L139.416,43.24 L139.416,45.208 L140.784,45.496 L140.784,55 L143.904,55 Z M140.688,41.296 L143.856,41.296 L143.856,38.44 L140.688,38.44 L140.688,41.296 Z M150.048,55.24 C150.864,55.24 151.776,55.048 151.776,55.048 L151.776,52.84 C150.48,52.84 149.88,52.696 149.88,51.712 L149.88,38.44 L146.784,38.44 L146.784,51.88 C146.784,53.968 147.648,55.24 150.048,55.24 L150.048,55.24 Z M157.896,55 L157.896,43.24 L153.408,43.24 L153.408,45.208 L154.776,45.496 L154.776,55 L157.896,55 Z M154.68,41.296 L157.848,41.296 L157.848,38.44 L154.68,38.44 L154.68,41.296 Z M165.432,43 C162.576,43 160.368,45.232 160.368,49.12 C160.368,53.32 162.504,55.24 165.168,55.24 C166.68,55.24 167.808,54.424 168.288,53.704 L168.648,55 L171.192,55 L171.192,38.44 L168.072,38.44 L168.072,41.992 C168.072,42.88 168.168,43.48 168.36,44.152 C167.712,43.432 166.704,43 165.432,43 L165.432,43 Z M168.072,51.952 C167.472,52.576 166.68,52.96 165.888,52.96 C164.4,52.96 163.512,51.904 163.512,49.096 C163.512,46.36 164.448,45.352 165.936,45.352 C166.848,45.352 167.592,45.64 168.072,45.928 L168.072,51.952 Z M183.408,55 L183.408,47.536 C183.408,44.536 181.968,43 178.632,43 C176.784,43 175.176,43.456 174,43.96 L174.792,46.192 C175.752,45.76 176.928,45.4 178.32,45.4 C179.52,45.4 180.384,45.88 180.384,47.392 L180.384,47.992 L177.912,47.992 C175.08,47.992 173.472,49.288 173.472,51.472 C173.472,53.728 175.056,55.24 177.408,55.24 C179.064,55.24 180.24,54.424 180.84,53.608 L181.272,55 L183.408,55 Z M180.384,52.312 C179.808,52.768 179.04,53.104 178.296,53.104 C177.12,53.104 176.544,52.456 176.544,51.376 C176.544,50.488 177.144,49.864 178.44,49.864 L180.384,49.864 L180.384,52.312 Z M190.824,43 C187.968,43 185.76,45.232 185.76,49.12 C185.76,53.32 187.896,55.24 190.56,55.24 C192.072,55.24 193.2,54.424 193.68,53.704 L194.04,55 L196.584,55 L196.584,38.44 L193.464,38.44 L193.464,41.992 C193.464,42.88 193.56,43.48 193.752,44.152 C193.104,43.432 192.096,43 190.824,43 L190.824,43 Z M193.464,51.952 C192.864,52.576 192.072,52.96 191.28,52.96 C189.792,52.96 188.904,51.904 188.904,49.096 C188.904,46.36 189.84,45.352 191.328,45.352 C192.24,45.352 192.984,45.64 193.464,45.928 L193.464,51.952 Z" id="Interoperabilidad" fill="#717B7F"></path>
                <path d="M76.3983051,80.7413274 L72.6525424,80.7413274 L72.7881356,82.3853952 L74.3474576,82.3853952 L74.3474576,84.5040393 C73.8050847,84.7582766 73.1440678,84.8599715 72.4152542,84.8599715 C70.4491525,84.8599715 69.4491525,83.4192935 69.4491525,80.7243783 C69.4491525,78.4531918 70.3813559,76.9447173 72.4491525,76.9447173 C73.6016949,76.9447173 74.6016949,77.2328528 75.2457627,77.6735308 L76.1779661,75.9786156 C75.279661,75.4023444 74.1440678,74.9786156 72.4152542,74.9786156 C68.8559322,74.9786156 67.1101695,77.2837003 67.1101695,80.7582766 C67.1101695,84.3853952 68.8559322,86.7582766 72.2627119,86.7582766 C73.6694915,86.7582766 74.8559322,86.4362427 76.3983051,85.7413274 L76.3983051,80.7413274 Z M81.7711864,78.1142088 C79.2288136,78.1142088 77.8728814,79.9786156 77.8728814,82.4192935 C77.8728814,85.2667511 79.279661,86.7582766 81.7711864,86.7582766 C84.2457627,86.7582766 85.6694915,85.249802 85.6694915,82.4192935 C85.6694915,79.9786156 84.279661,78.1142088 81.7711864,78.1142088 L81.7711864,78.1142088 Z M81.7711864,85.1311579 C80.6864407,85.1311579 80.1610169,84.3514969 80.1610169,82.4192935 C80.1610169,80.4362427 80.7372881,79.7243783 81.7711864,79.7243783 C82.8050847,79.7243783 83.3983051,80.4192935 83.3983051,82.4192935 C83.3983051,84.4023444 82.8559322,85.1311579 81.7711864,85.1311579 L81.7711864,85.1311579 Z M89.5338983,77.7921749 L89.5338983,74.8938698 L87.3135593,74.8938698 L87.3135593,86.588785 L88.5,86.588785 L88.9067797,85.588785 C89.4322034,86.3006495 90.1271186,86.7582766 91.3135593,86.7582766 C93.2457627,86.7582766 94.940678,85.2837003 94.940678,82.4192935 C94.940678,79.5040393 93.5338983,78.1142088 91.5847458,78.1142088 C90.6525424,78.1142088 89.7542373,78.6226834 89.3813559,79.1311579 L89.5338983,77.7921749 Z M89.5338983,80.4023444 C89.9067797,80.029463 90.5169492,79.7413274 91.0762712,79.7413274 C92.0932203,79.7413274 92.720339,80.4362427 92.720339,82.4192935 C92.720339,84.4192935 92.0084746,85.1311579 91.0423729,85.1311579 C90.4491525,85.1311579 89.8728814,84.7413274 89.5338983,84.2837003 L89.5338983,80.4023444 Z M99.5,86.588785 L99.5,78.2837003 L96.3305085,78.2837003 L96.3305085,79.6735308 L97.2966102,79.8769206 L97.2966102,86.588785 L99.5,86.588785 Z M97.2288136,76.9108189 L99.4661017,76.9108189 L99.4661017,74.8938698 L97.2288136,74.8938698 L97.2288136,76.9108189 Z M108.584746,83.029463 L108.584746,82.0633613 C108.584746,79.9786156 107.601695,78.1142088 105.09322,78.1142088 C102.432203,78.1142088 101.194915,79.8599715 101.194915,82.4192935 C101.194915,85.1650562 102.720339,86.7582766 105.279661,86.7582766 C106.584746,86.7582766 107.720339,86.3175986 108.415254,85.9447173 L107.991525,84.3853952 C107.262712,84.7582766 106.398305,85.0803105 105.550847,85.0803105 C104.161017,85.0803105 103.415254,84.3514969 103.415254,83.029463 L108.584746,83.029463 Z M106.449153,81.7243783 L103.415254,81.7243783 C103.415254,80.7413274 103.872881,79.7413274 104.974576,79.7413274 C106.127119,79.7413274 106.449153,80.6565817 106.449153,81.7243783 L106.449153,81.7243783 Z M115.025424,78.249802 C114.838983,78.1989545 114.5,78.1311579 114.059322,78.1311579 C113.076271,78.1311579 112.330508,78.809124 112.076271,79.4023444 L112.025424,79.4023444 L111.788136,78.2837003 L110.245763,78.2837003 L110.245763,86.588785 L112.449153,86.588785 L112.449153,80.5548867 C112.822034,80.249802 113.347458,79.9955647 113.940678,79.9955647 C114.313559,79.9955647 114.70339,80.0464122 114.974576,80.1311579 L115.025424,78.249802 Z M123.720339,86.588785 L123.720339,81.4531918 C123.720339,79.3514969 122.889831,78.1142088 120.788136,78.1142088 C119.550847,78.1142088 118.635593,78.6735308 118.161017,79.2328528 L117.822034,78.2837003 L116.29661,78.2837003 L116.29661,86.588785 L118.516949,86.588785 L118.516949,80.3175986 C118.90678,80.0633613 119.398305,79.809124 119.974576,79.809124 C120.991525,79.809124 121.466102,80.4023444 121.466102,81.6565817 L121.466102,86.588785 L123.720339,86.588785 Z M129.09322,78.1142088 C126.550847,78.1142088 125.194915,79.9786156 125.194915,82.4192935 C125.194915,85.2667511 126.601695,86.7582766 129.09322,86.7582766 C131.567797,86.7582766 132.991525,85.249802 132.991525,82.4192935 C132.991525,79.9786156 131.601695,78.1142088 129.09322,78.1142088 L129.09322,78.1142088 Z M129.09322,85.1311579 C128.008475,85.1311579 127.483051,84.3514969 127.483051,82.4192935 C127.483051,80.4362427 128.059322,79.7243783 129.09322,79.7243783 C130.127119,79.7243783 130.720339,80.4192935 130.720339,82.4192935 C130.720339,84.4023444 130.177966,85.1311579 129.09322,85.1311579 L129.09322,85.1311579 Z M141.686441,78.1142088 C139.669492,78.1142088 138.110169,79.69048 138.110169,82.4362427 C138.110169,85.4023444 139.618644,86.7582766 141.5,86.7582766 C142.567797,86.7582766 143.364407,86.1820054 143.70339,85.6735308 L143.957627,86.588785 L145.754237,86.588785 L145.754237,74.8938698 L143.550847,74.8938698 L143.550847,77.4023444 C143.550847,78.029463 143.618644,78.4531918 143.754237,78.9277681 C143.29661,78.4192935 142.584746,78.1142088 141.686441,78.1142088 L141.686441,78.1142088 Z M143.550847,84.4362427 C143.127119,84.8769206 142.567797,85.1481071 142.008475,85.1481071 C140.957627,85.1481071 140.330508,84.4023444 140.330508,82.4192935 C140.330508,80.4870901 140.991525,79.7752257 142.042373,79.7752257 C142.686441,79.7752257 143.211864,79.9786156 143.550847,80.1820054 L143.550847,84.4362427 Z M154.822034,83.029463 L154.822034,82.0633613 C154.822034,79.9786156 153.838983,78.1142088 151.330508,78.1142088 C148.669492,78.1142088 147.432203,79.8599715 147.432203,82.4192935 C147.432203,85.1650562 148.957627,86.7582766 151.516949,86.7582766 C152.822034,86.7582766 153.957627,86.3175986 154.652542,85.9447173 L154.228814,84.3853952 C153.5,84.7582766 152.635593,85.0803105 151.788136,85.0803105 C150.398305,85.0803105 149.652542,84.3514969 149.652542,83.029463 L154.822034,83.029463 Z M152.686441,81.7243783 L149.652542,81.7243783 C149.652542,80.7413274 150.110169,79.7413274 151.211864,79.7413274 C152.364407,79.7413274 152.686441,80.6565817 152.686441,81.7243783 L152.686441,81.7243783 Z M168.855932,85.5379376 L168.144068,83.7413274 C167.364407,84.3175986 166.245763,84.7921749 165.127119,84.7921749 C163.262712,84.7921749 162.313559,83.4362427 162.313559,80.7921749 C162.313559,78.2837003 163.262712,76.9447173 165.161017,76.9447173 C166.347458,76.9447173 167.381356,77.2837003 167.974576,77.7413274 L168.822034,75.9447173 C167.889831,75.3175986 166.483051,74.9786156 164.923729,74.9786156 C161.686441,74.9786156 159.974576,77.249802 159.974576,80.809124 C159.974576,84.6226834 161.70339,86.7582766 164.923729,86.7582766 C166.432203,86.7582766 167.720339,86.3175986 168.855932,85.5379376 L168.855932,85.5379376 Z M172.567797,86.588785 L172.567797,80.3175986 C172.940678,80.0464122 173.466102,79.809124 174.042373,79.809124 C175.042373,79.809124 175.516949,80.4531918 175.516949,81.6396325 L175.516949,86.588785 L177.771186,86.588785 L177.771186,81.4531918 C177.771186,79.3514969 177.110169,78.1142088 174.737288,78.1142088 C173.567797,78.1142088 172.805085,78.6735308 172.347458,79.249802 C172.449153,78.9955647 172.567797,78.5379376 172.567797,77.9616664 L172.567797,74.8938698 L170.347458,74.8938698 L170.347458,86.588785 L172.567797,86.588785 Z M182.449153,86.588785 L182.449153,78.2837003 L179.279661,78.2837003 L179.279661,79.6735308 L180.245763,79.8769206 L180.245763,86.588785 L182.449153,86.588785 Z M180.177966,76.9108189 L182.415254,76.9108189 L182.415254,74.8938698 L180.177966,74.8938698 L180.177966,76.9108189 Z M186.788136,86.7582766 C187.364407,86.7582766 188.008475,86.6226834 188.008475,86.6226834 L188.008475,85.0633613 C187.09322,85.0633613 186.669492,84.9616664 186.669492,84.2667511 L186.669492,74.8938698 L184.483051,74.8938698 L184.483051,84.3853952 C184.483051,85.8599715 185.09322,86.7582766 186.788136,86.7582766 L186.788136,86.7582766 Z M196.516949,83.029463 L196.516949,82.0633613 C196.516949,79.9786156 195.533898,78.1142088 193.025424,78.1142088 C190.364407,78.1142088 189.127119,79.8599715 189.127119,82.4192935 C189.127119,85.1650562 190.652542,86.7582766 193.211864,86.7582766 C194.516949,86.7582766 195.652542,86.3175986 196.347458,85.9447173 L195.923729,84.3853952 C195.194915,84.7582766 194.330508,85.0803105 193.483051,85.0803105 C192.09322,85.0803105 191.347458,84.3514969 191.347458,83.029463 L196.516949,83.029463 Z M194.381356,81.7243783 L191.347458,81.7243783 C191.347458,80.7413274 191.805085,79.7413274 192.90678,79.7413274 C194.059322,79.7413274 194.381356,80.6565817 194.381356,81.7243783 L194.381356,81.7243783 Z" id="Gobierno-de-Chile" fill="#AAB1B5"></path>
            </g>
        </g>
    </g>
</svg>