<?xml version="1.0" encoding="UTF-8" standalone="no"?>
<svg width="200px" height="87px" viewBox="0 0 200 87" version="1.1" xmlns="http://www.w3.org/2000/svg" xmlns:xlink="http://www.w3.org/1999/xlink">
    <!-- Generator: Sketch 3.8.3 (29802) - http://www.bohemiancoding.com/sketch -->
    <title>logo</title>
    <desc>Created with Sketch.</desc>
    <defs></defs>
    <g id="Page-1" stroke="none" stroke-width="1" fill="none" fill-rule="evenodd">
        <g id="logo">
            <g id="Symbols">
                <g id="header-esquemas">
                    <g id="header">
                        <g id="logo-provisorio">
                            <g id="Group">
                                <rect id="Rectangle-66" fill="#0069B4" x="0" y="0" width="91.5254237" height="7.65420561"></rect>
                                <rect id="Rectangle-66-Copy" fill="#EC4244" x="91.5254237" y="0" width="108.474576" height="7.65420561"></rect>
                                <path d="M51.2686441,36.7615635 L45.1186441,36.7615635 L45.1186441,60.2149533 L47.7593221,60.2149533 L47.7593221,51.2505465 L51.2686441,51.2505465 C56.0983051,51.2505465 59.6771187,48.6446143 59.6771187,43.7454618 C59.6771187,38.9505465 55.8550848,36.7615635 51.2686441,36.7615635 Z M56.8279661,43.8149533 C56.8279661,47.3590211 54.6737288,49.0615635 51.0949153,49.0615635 L47.7593221,49.0615635 L47.7593221,39.0200381 L51.0949153,39.0200381 C54.4652543,39.0200381 56.8279661,40.5141058 56.8279661,43.8149533 L56.8279661,43.8149533 Z M67.0084746,60.5624109 C67.8423729,60.5624109 68.6762712,60.3539364 68.6762712,60.3539364 L68.6762712,58.5471567 L68.120339,58.5471567 C66.2440678,58.5471567 65.5838983,57.9564787 65.5838983,56.4971567 L65.5838983,36.240377 L62.9779661,36.240377 L62.9779661,55.5242753 C62.9779661,58.7208855 63.7771187,60.5624109 67.0084746,60.5624109 L67.0084746,60.5624109 Z M84.3118644,60.2149533 L84.3118644,48.9920719 C84.3118644,44.9268177 82.2618644,42.8420719 78.231356,42.8420719 C75.4169492,42.8420719 73.4016949,43.5369872 72.0466102,44.1276652 L72.7415254,46.0386821 C73.9923729,45.4827499 75.729661,44.9268177 77.8838983,44.9268177 C80.4550848,44.9268177 81.740678,46.1776652 81.740678,49.131055 L81.740678,50.4861397 L77.3279661,50.4861397 C73.4711865,50.4861397 71.3169492,52.3971567 71.3169492,55.3505465 C71.3169492,58.2344448 73.3322034,60.5624109 76.8067797,60.5624109 C79.2042373,60.5624109 81.0457627,59.3115635 82.0533899,58.0259702 L82.5050848,60.2149533 L84.3118644,60.2149533 Z M81.740678,56.5319025 C80.7330509,57.6785126 79.1347458,58.651394 77.4669492,58.651394 C75,58.651394 73.8881356,57.2963092 73.8881356,55.2463092 C73.8881356,53.5437669 74.861017,52.2929194 77.7449153,52.2929194 L81.740678,52.2929194 L81.740678,56.5319025 Z M98.3144068,59.5547838 L97.7932204,57.6090211 C97.2372882,57.8869872 95.9864407,58.3386821 95.0830509,58.3386821 C93.4847458,58.3386821 92.8245763,57.470038 92.8245763,55.6632584 L92.8245763,45.1005465 L97.7932204,45.1005465 L97.7932204,43.1895296 L92.8245763,43.1895296 L92.8245763,39.2632584 L90.1838983,40.0971567 L90.1838983,43.1895296 L87.6127119,43.1895296 L87.6127119,45.1005465 L90.1838983,45.1005465 L90.1838983,55.3505465 C90.1838983,59.3463092 92.1644068,60.5624109 94.5618644,60.5624109 C95.9516949,60.5624109 97.5847458,60.0064787 98.3144068,59.5547838 L98.3144068,59.5547838 Z M110.023729,61.7785126 C107.8,60.6666482 106.583898,59.0335974 106.583898,56.2886821 L106.583898,50.8683431 L102.970339,48.9573262 L103.804237,48.401394 L106.583898,45.8649533 L106.583898,42.2861397 C106.583898,39.5064787 107.695763,38.1861397 110.023729,36.7963092 L109.155085,34.8158008 C105.541525,36.3098686 103.873729,38.6378347 103.873729,42.0429194 L103.873729,45.9344448 C102.622881,46.5598686 101.337288,47.1158008 100.086441,47.7412245 L100.086441,49.9996991 L103.873729,51.9454618 L103.873729,54.8641058 C103.873729,59.3463092 104.84661,61.8480041 109.155085,63.7242753 L110.023729,61.7785126 Z" id="Plat{" fill="#717B7F"></path>
                                <path d="M117.494067,51.3895296 C118.466949,51.3895296 119.161864,51.3895296 120.204237,51.3547838 L124.061017,60.2149533 L129.411864,60.2149533 C127.778813,56.9488516 126.076271,53.821733 124.44322,50.5556313 C127.083898,49.3395296 128.890678,46.9768177 128.890678,43.8149533 C128.890678,38.9158008 125.138135,36.7615635 120.516949,36.7615635 L112.977118,36.7615635 L112.977118,60.2149533 L117.494067,60.2149533 L117.494067,51.3895296 Z M124.026271,43.7802075 C124.026271,46.4556313 122.775423,47.810716 119.787288,47.810716 L117.494067,47.810716 L117.494067,40.3056313 L119.787288,40.3056313 C122.532203,40.3056313 124.026271,41.1742753 124.026271,43.7802075 L124.026271,43.7802075 Z M146.99322,60.2149533 L146.99322,56.4276652 L137.125423,56.4276652 L137.125423,50.4166482 L144.317796,50.4166482 L144.665254,46.3861397 L137.125423,46.3861397 L137.125423,40.6183431 L146.99322,40.6183431 L146.99322,36.7615635 L132.573729,36.7615635 L132.573729,60.2149533 L146.99322,60.2149533 Z M164.922034,53.370038 C164.922034,45.3785126 154.011864,47.0115635 154.011864,42.8073262 C154.011864,41.0700381 155.401695,40.3751228 157.521186,40.3751228 C159.675423,40.3751228 161.760169,40.8963092 163.045762,41.660716 L164.574576,38.0124109 C162.663559,37.0047838 160.335593,36.4141059 157.590678,36.4141059 C152.100847,36.4141059 149.321186,39.3327499 149.321186,42.8768177 C149.321186,51.1463092 160.161864,48.6793601 160.161864,53.6480041 C160.161864,55.420038 158.702542,56.740377 156.548305,56.740377 C154.394067,56.740377 151.927118,55.6632584 150.572034,54.4819025 L148.834745,58.060716 C150.711017,59.4505465 153.351695,60.5624109 156.478813,60.5624109 C161.829661,60.5624109 164.922034,57.0878347 164.922034,53.370038 L164.922034,53.370038 Z M182.399152,40.6183431 L182.399152,36.7615635 L166.172881,36.7615635 L166.172881,40.6183431 L171.83644,40.6183431 L171.83644,60.2149533 L176.561864,60.2149533 L176.561864,40.6183431 L182.399152,40.6183431 Z" id="REST" fill="#717B7F"></path>
                                <path d="M197.339831,49.9996991 L197.339831,47.7412245 C196.088983,47.1158008 194.80339,46.5598686 193.552543,45.9344448 L193.552543,41.6954618 C193.552543,38.4988516 191.745763,36.240377 188.305933,34.8158008 L187.402543,36.7963092 C189.730509,38.1861397 190.842373,39.471733 190.842373,42.2861397 L190.842373,47.081055 L194.490678,48.7488516 L194.177966,49.0615635 C193.066102,49.6869872 191.954238,50.2429194 190.842373,50.8683431 L190.842373,56.2886821 C190.842373,58.9293601 189.661017,60.7361397 187.402543,61.7785126 L188.305933,63.7242753 C192.197458,61.9869872 193.552543,59.7285126 193.552543,55.9064787 L193.552543,51.9454618 L197.339831,49.9996991 Z" id="}" fill="#717B7F"></path>
                                <path d="M76.3983051,80.7413274 L72.6525424,80.7413274 L72.7881356,82.3853952 L74.3474576,82.3853952 L74.3474576,84.5040392 C73.8050847,84.7582765 73.1440678,84.8599714 72.4152542,84.8599714 C70.4491526,84.8599714 69.4491526,83.4192935 69.4491526,80.7243782 C69.4491526,78.4531918 70.3813559,76.9447172 72.4491525,76.9447172 C73.6016949,76.9447172 74.6016949,77.2328528 75.2457627,77.6735308 L76.1779661,75.9786155 C75.279661,75.4023443 74.1440678,74.9786155 72.4152542,74.9786155 C68.8559322,74.9786155 67.1101695,77.2837003 67.1101695,80.7582765 C67.1101695,84.3853952 68.8559322,86.7582765 72.2627119,86.7582765 C73.6694915,86.7582765 74.8559322,86.4362426 76.3983051,85.7413274 L76.3983051,80.7413274 Z M81.7711864,78.1142088 C79.2288135,78.1142088 77.8728813,79.9786155 77.8728813,82.4192935 C77.8728813,85.2667511 79.279661,86.7582765 81.7711864,86.7582765 C84.2457627,86.7582765 85.6694915,85.249802 85.6694915,82.4192935 C85.6694915,79.9786155 84.279661,78.1142088 81.7711864,78.1142088 L81.7711864,78.1142088 Z M81.7711864,85.1311579 C80.6864407,85.1311579 80.1610169,84.3514969 80.1610169,82.4192935 C80.1610169,80.4362426 80.7372881,79.7243782 81.7711864,79.7243782 C82.8050847,79.7243782 83.3983051,80.4192935 83.3983051,82.4192935 C83.3983051,84.4023443 82.8559322,85.1311579 81.7711864,85.1311579 L81.7711864,85.1311579 Z M89.5338983,77.7921749 L89.5338983,74.8938698 L87.3135593,74.8938698 L87.3135593,86.588785 L88.5,86.588785 L88.9067796,85.588785 C89.4322034,86.3006494 90.1271186,86.7582765 91.3135593,86.7582765 C93.2457627,86.7582765 94.9406779,85.2837003 94.9406779,82.4192935 C94.9406779,79.5040393 93.5338983,78.1142088 91.5847457,78.1142088 C90.6525423,78.1142088 89.7542373,78.6226833 89.3813559,79.1311579 L89.5338983,77.7921749 Z M89.5338983,80.4023443 C89.9067796,80.029463 90.5169491,79.7413274 91.0762711,79.7413274 C92.0932203,79.7413274 92.7203389,80.4362426 92.7203389,82.4192935 C92.7203389,84.4192935 92.0084745,85.1311579 91.0423728,85.1311579 C90.4491525,85.1311579 89.8728813,84.7413274 89.5338983,84.2837003 L89.5338983,80.4023443 Z M99.4999999,86.588785 L99.4999999,78.2837003 L96.3305084,78.2837003 L96.3305084,79.6735308 L97.2966101,79.8769206 L97.2966101,86.588785 L99.4999999,86.588785 Z M97.2288135,76.9108189 L99.4661016,76.9108189 L99.4661016,74.8938698 L97.2288135,74.8938698 L97.2288135,76.9108189 Z M108.584746,83.029463 L108.584746,82.0633613 C108.584746,79.9786155 107.601695,78.1142088 105.09322,78.1142088 C102.432203,78.1142088 101.194915,79.8599715 101.194915,82.4192935 C101.194915,85.1650562 102.720339,86.7582765 105.279661,86.7582765 C106.584746,86.7582765 107.720339,86.3175986 108.415254,85.9447172 L107.991525,84.3853952 C107.262712,84.7582765 106.398305,85.0803104 105.550847,85.0803104 C104.161017,85.0803104 103.415254,84.3514969 103.415254,83.029463 L108.584746,83.029463 Z M106.449152,81.7243782 L103.415254,81.7243782 C103.415254,80.7413274 103.872881,79.7413274 104.974576,79.7413274 C106.127119,79.7413274 106.449152,80.6565816 106.449152,81.7243782 L106.449152,81.7243782 Z M115.025424,78.249802 C114.838983,78.1989545 114.5,78.1311579 114.059322,78.1311579 C113.076271,78.1311579 112.330508,78.809124 112.076271,79.4023443 L112.025424,79.4023443 L111.788136,78.2837003 L110.245763,78.2837003 L110.245763,86.588785 L112.449152,86.588785 L112.449152,80.5548867 C112.822034,80.249802 113.347458,79.9955647 113.940678,79.9955647 C114.313559,79.9955647 114.70339,80.0464121 114.974576,80.1311579 L115.025424,78.249802 Z M123.720339,86.588785 L123.720339,81.4531918 C123.720339,79.3514969 122.88983,78.1142088 120.788135,78.1142088 C119.550847,78.1142088 118.635593,78.6735308 118.161017,79.2328528 L117.822034,78.2837003 L116.29661,78.2837003 L116.29661,86.588785 L118.516949,86.588785 L118.516949,80.3175986 C118.90678,80.0633613 119.398305,79.809124 119.974576,79.809124 C120.991525,79.809124 121.466102,80.4023443 121.466102,81.6565816 L121.466102,86.588785 L123.720339,86.588785 Z M129.09322,78.1142088 C126.550847,78.1142088 125.194915,79.9786155 125.194915,82.4192935 C125.194915,85.2667511 126.601695,86.7582765 129.09322,86.7582765 C131.567796,86.7582765 132.991525,85.249802 132.991525,82.4192935 C132.991525,79.9786155 131.601695,78.1142088 129.09322,78.1142088 L129.09322,78.1142088 Z M129.09322,85.1311579 C128.008474,85.1311579 127.483051,84.3514969 127.483051,82.4192935 C127.483051,80.4362426 128.059322,79.7243782 129.09322,79.7243782 C130.127119,79.7243782 130.720339,80.4192935 130.720339,82.4192935 C130.720339,84.4023443 130.177966,85.1311579 129.09322,85.1311579 L129.09322,85.1311579 Z M141.686441,78.1142088 C139.669491,78.1142088 138.110169,79.6904799 138.110169,82.4362426 C138.110169,85.4023443 139.618644,86.7582765 141.5,86.7582765 C142.567796,86.7582765 143.364407,86.1820053 143.70339,85.6735308 L143.957627,86.588785 L145.754237,86.588785 L145.754237,74.8938698 L143.550847,74.8938698 L143.550847,77.4023443 C143.550847,78.029463 143.618644,78.4531918 143.754237,78.9277681 C143.29661,78.4192935 142.584746,78.1142088 141.686441,78.1142088 L141.686441,78.1142088 Z M143.550847,84.4362426 C143.127118,84.8769206 142.567796,85.148107 142.008474,85.148107 C140.957627,85.148107 140.330508,84.4023443 140.330508,82.4192935 C140.330508,80.4870901 140.991525,79.7752257 142.042373,79.7752257 C142.686441,79.7752257 143.211864,79.9786155 143.550847,80.1820054 L143.550847,84.4362426 Z M154.822034,83.029463 L154.822034,82.0633613 C154.822034,79.9786155 153.838983,78.1142088 151.330508,78.1142088 C148.669491,78.1142088 147.432203,79.8599715 147.432203,82.4192935 C147.432203,85.1650562 148.957627,86.7582765 151.516949,86.7582765 C152.822034,86.7582765 153.957627,86.3175986 154.652542,85.9447172 L154.228813,84.3853952 C153.5,84.7582765 152.635593,85.0803104 151.788135,85.0803104 C150.398305,85.0803104 149.652542,84.3514969 149.652542,83.029463 L154.822034,83.029463 Z M152.68644,81.7243782 L149.652542,81.7243782 C149.652542,80.7413274 150.110169,79.7413274 151.211864,79.7413274 C152.364407,79.7413274 152.68644,80.6565816 152.68644,81.7243782 L152.68644,81.7243782 Z M168.855932,85.5379375 L168.144068,83.7413274 C167.364407,84.3175986 166.245762,84.7921748 165.127118,84.7921748 C163.262712,84.7921748 162.313559,83.4362426 162.313559,80.7921748 C162.313559,78.2837003 163.262712,76.9447172 165.161017,76.9447172 C166.347457,76.9447172 167.381356,77.2837003 167.974576,77.7413274 L168.822034,75.9447172 C167.88983,75.3175986 166.483051,74.9786155 164.923729,74.9786155 C161.68644,74.9786155 159.974576,77.249802 159.974576,80.809124 C159.974576,84.6226833 161.70339,86.7582765 164.923729,86.7582765 C166.432203,86.7582765 167.720339,86.3175986 168.855932,85.5379375 L168.855932,85.5379375 Z M172.567796,86.588785 L172.567796,80.3175986 C172.940678,80.0464121 173.466101,79.809124 174.042373,79.809124 C175.042373,79.809124 175.516949,80.4531918 175.516949,81.6396325 L175.516949,86.588785 L177.771186,86.588785 L177.771186,81.4531918 C177.771186,79.3514969 177.110169,78.1142088 174.737288,78.1142088 C173.567796,78.1142088 172.805085,78.6735308 172.347457,79.249802 C172.449152,78.9955647 172.567796,78.5379376 172.567796,77.9616664 L172.567796,74.8938698 L170.347457,74.8938698 L170.347457,86.588785 L172.567796,86.588785 Z M182.449152,86.588785 L182.449152,78.2837003 L179.279661,78.2837003 L179.279661,79.6735308 L180.245762,79.8769206 L180.245762,86.588785 L182.449152,86.588785 Z M180.177966,76.9108189 L182.415254,76.9108189 L182.415254,74.8938698 L180.177966,74.8938698 L180.177966,76.9108189 Z M186.788135,86.7582765 C187.364406,86.7582765 188.008474,86.6226833 188.008474,86.6226833 L188.008474,85.0633613 C187.09322,85.0633613 186.669491,84.9616664 186.669491,84.2667511 L186.669491,74.8938698 L184.483051,74.8938698 L184.483051,84.3853952 C184.483051,85.8599714 185.09322,86.7582765 186.788135,86.7582765 L186.788135,86.7582765 Z M196.516949,83.029463 L196.516949,82.0633613 C196.516949,79.9786155 195.533898,78.1142088 193.025423,78.1142088 C190.364406,78.1142088 189.127118,79.8599715 189.127118,82.4192935 C189.127118,85.1650562 190.652542,86.7582765 193.211864,86.7582765 C194.516949,86.7582765 195.652542,86.3175986 196.347457,85.9447172 L195.923729,84.3853952 C195.194915,84.7582765 194.330508,85.0803104 193.483051,85.0803104 C192.09322,85.0803104 191.347457,84.3514969 191.347457,83.029463 L196.516949,83.029463 Z M194.381356,81.7243782 L191.347457,81.7243782 C191.347457,80.7413274 191.805084,79.7413274 192.906779,79.7413274 C194.059322,79.7413274 194.381356,80.6565816 194.381356,81.7243782 L194.381356,81.7243782 Z" id="Gobierno-de-Chile" fill="#717B7F"></path>
                            </g>
                        </g>
                    </g>
                </g>
            </g>
        </g>
    </g>
</svg>